<svg xmlns="http://www.w3.org/2000/svg" xmlns:xlink="http://www.w3.org/1999/xlink" width="109.706" height="75.901" viewBox="0 0 109.706 75.901"><defs><clipPath id="a"><path d="M463.218,58.053c.361.319.6.542.852.752,1.44,1.2,1.441,1.2.573,2.737-1.794,2.475-3.494,4.627-5.433,6.99-.078.06-.328.383-.392.456a64.649,64.649,0,0,1-11.305,10.3,1.519,1.519,0,0,1-.359.133c2.428-.317,9.366-4.481,12.115-7.007,0,0,4.5-4.057,5.73-5.439,0,0,1.326-1.517,2.138-2.456a5.074,5.074,0,0,0,.386-.508,3.285,3.285,0,0,1,.964-1.082c.6-.315,1.1.421,1.674.623.292.1.486.2.524-.248.22-2.585.456-5.168.7-7.9l-8.167,2.65" transform="translate(-447.154 -55.403)" fill="none"/></clipPath><linearGradient id="b" x1="-1.495" y1="2.19" x2="-1.492" y2="2.19" gradientUnits="objectBoundingBox"><stop offset="0" stop-color="#cc9035"/><stop offset="0.021" stop-color="#cc9035"/><stop offset="0.197" stop-color="#d9a64a"/><stop offset="0.336" stop-color="#e6c061"/><stop offset="0.509" stop-color="#f6dc7a"/><stop offset="0.575" stop-color="#edcd6d"/><stop offset="0.658" stop-color="#e6c061"/><stop offset="0.805" stop-color="#d9a64a"/><stop offset="0.996" stop-color="#cc9035"/><stop offset="1" stop-color="#cc9035"/></linearGradient><clipPath id="c"><path d="M447.358,219.268q-.963.465-1.968.833a62.848,62.848,0,0,1-10.56,2.922c1.132.819,2.082,1.621,3.278,1.451a38.4,38.4,0,0,0,8.58-2.141l.01,0a38.736,38.736,0,0,0,6.837-2.763c.3-.152.709-.218.6-.763-.2-.966-.335-1.945-.526-3.093a39.692,39.692,0,0,1-6.246,3.555" transform="translate(-434.83 -215.713)" fill="none"/></clipPath><linearGradient id="d" x1="-2.539" y1="2.881" x2="-2.534" y2="2.881" xlink:href="#b"/><clipPath id="e"><path d="M443.356,154.816c-2.01,1.505-4.048,2.971-6.187,4.292a56.462,56.462,0,0,1-9.607,4.428c-.217.073-.653.043-.578.4.086.412.486.375.826.3a46.784,46.784,0,0,0,9.971-3.168,34.577,34.577,0,0,0,5.831-2.8h0a41.941,41.941,0,0,0,5.466-3.266c.265-.179.619-.319.559-.746-.217-1.522-.438-3.043-.689-4.784a67.712,67.712,0,0,1-5.591,5.336" transform="translate(-426.975 -149.48)" fill="none"/></clipPath><linearGradient id="f" x1="-1.862" y1="2.455" x2="-1.858" y2="2.455" xlink:href="#b"/><clipPath id="g"><path d="M378.669,109.422h0a12.954,12.954,0,0,0-10.2,11.93,13.128,13.128,0,0,0,5.784,11.828,11.771,11.771,0,0,0,7.415,2.238,13.123,13.123,0,0,0,7.618-2.387c2.153,2.134,4.315,4.259,6.449,6.411.408.412.651.449,1.071-.046.15-.177.312-.343.475-.509.394-.4.745-.807,1.087-1.158.142-.145.293-.281.448-.411.7-.584.811-.886.191-1.475-1.692-1.606-3.294-3.305-4.977-4.92-.867-.832-1.8-1.567-.5-2.878-.928.219-1.705.49-2.5.706a3.765,3.765,0,0,0-2,1.146,3.573,3.573,0,0,1-.394.379,11.656,11.656,0,0,1-5.779,2.6,11.051,11.051,0,0,1-8.422-2.8c-.218-.251-.432-.5-.653-.752a10.5,10.5,0,0,1-1.061-12.382,11.081,11.081,0,0,1,6.341-4.742,10.944,10.944,0,0,1,8.823,1.788c.513.371.911,1.249,1.528,1.037.537-.185.85-.977,1.306-1.459.4-.421.314-.686-.1-1.044a13.106,13.106,0,0,0-8.755-3.48,14.3,14.3,0,0,0-3.2.376" transform="translate(-368.462 -109.046)" fill="none"/></clipPath><linearGradient id="h" x1="-0.903" y1="1.581" x2="-0.9" y2="1.581" xlink:href="#b"/><clipPath id="i"><path d="M604.531,340.685q-1.362,1.386-2.717,2.779c-.136.14-.317.317-.117.507.513.488.868,1.2,1.747,1.173a2.484,2.484,0,0,0,1.5-4.661.344.344,0,0,0-.079-.01c-.151,0-.241.114-.337.212" transform="translate(-601.609 -340.473)" fill="none"/></clipPath><linearGradient id="j" x1="-11.06" y1="5.25" x2="-11.041" y2="5.25" xlink:href="#b"/><clipPath id="k"><path d="M404.713,137.075a9.433,9.433,0,0,0-6.065,3.174c-4.711,5.067-2.411,13.737,3.838,15.887,2.792,1.227,8.077.513,9.94-2.169a10.8,10.8,0,0,1-9.663,1.727,5.774,5.774,0,0,1-.63-.3,9.323,9.323,0,0,1-2.506-15.317,9.041,9.041,0,0,1,4.59-2.265,8.661,8.661,0,0,1,2.847-.1A9.12,9.12,0,0,1,412.251,140c.2.183.536.569.761.344.336-.336-.158-.575-.363-.757a9.662,9.662,0,0,0-6.553-2.607,10.53,10.53,0,0,0-1.382.093" transform="translate(-396.143 -136.982)" fill="none"/></clipPath><linearGradient id="l" x1="-1.536" y1="2.245" x2="-1.531" y2="2.245" xlink:href="#b"/><clipPath id="m"><path d="M344.648,279.327c-.154.047-.312.08-.469.112-.8.165-1.519.3-2.287.459a2,2,0,0,0-1.325.5,35.184,35.184,0,0,0,6.048.244c-.436-.941-.891-1.394-1.5-1.394a1.587,1.587,0,0,0-.462.075" transform="translate(-340.566 -279.252)" fill="none"/></clipPath><linearGradient id="n" x1="-7.387" y1="8.944" x2="-7.365" y2="8.944" xlink:href="#b"/><clipPath id="o"><path d="M261.246.164c0,.009,0,.017,0,.026h-.008a.2.2,0,0,0,.008-.026M243.851,1.271q.053,21.131.024,42.262c0,.2.014.4,0,.6-.036.473.171.647.644.641h32.318c.3,0,.627.025.627-.429,0-1.308,0-2.616,0-4.027a15.018,15.018,0,0,1-11.756-.656,22.843,22.843,0,0,1-2.8-2.019,1.088,1.088,0,0,0-.8-.309c-.957.006-1.914,0-2.871,0h0c-2-.013-4.006-.044-6.009-.03-.544,0-.766-.124-.762-.718q.037-4.909,0-9.819c0-.589.209-.734.759-.72.589.015,1.179.011,1.769.008.713,0,1.426-.01,2.138.019.664.027.864-.207.894-.842a12.261,12.261,0,0,1,1.212-4.619c.305-.654.653-1.287,1.037-2.039-2.392,0-4.659-.028-6.925.017-.692.014-.9-.153-.891-.87.044-2.738.018-5.477.018-8.216,0-1.936,0-1.944,1.967-1.944q4.725,0,9.45,0,4.793,0,9.587,0l3.152.013v-.15h0c0-2.486.021-4.831.021-7.232a.3.3,0,0,0-.325-.165l-9.286.045-5.788,0-9.421,0h0c-.649,0-1.3,0-1.946,0-1.587,0-3.175,0-4.759-.069-.065,0-.127,0-.185,0-.87,0-1.084.32-1.082,1.27" transform="translate(-243.851 -0.001)" fill="none"/></clipPath><linearGradient id="p" x1="-0.373" y1="1.455" x2="-0.371" y2="1.455" xlink:href="#b"/><clipPath id="q"><rect width="109.706" height="75.901" fill="none"/></clipPath></defs><g transform="translate(55.312 6.853)"><g clip-path="url(#a)"><rect width="33.793" height="33.75" transform="translate(-11.527 8.645) rotate(-36.87)" fill="url(#b)"/></g></g><g transform="translate(53.787 26.683)"><g clip-path="url(#c)"><rect width="20.89" height="18.794" transform="matrix(0.8, -0.6, 0.6, 0.8, -4.287, 3.216)" fill="url(#d)"/></g></g><g transform="translate(52.816 18.49)"><g clip-path="url(#e)"><rect width="27.152" height="25.569" transform="matrix(0.8, -0.6, 0.6, 0.8, -7.204, 5.353)" fill="url(#f)"/></g></g><g transform="translate(45.578 13.489)"><g clip-path="url(#g)"><rect width="43.548" height="43.457" transform="translate(-14.94 11.104) rotate(-36.87)" fill="url(#h)"/></g></g><g transform="translate(74.417 42.116)"><g clip-path="url(#i)"><rect width="6.634" height="6.619" transform="matrix(0.8, -0.6, 0.6, 0.8, -2.364, 1.69)" fill="url(#j)"/></g></g><g transform="translate(49.002 16.944)"><g clip-path="url(#k)"><rect width="27.758" height="27.952" transform="translate(-11.989 7.337) rotate(-36.87)" fill="url(#l)"/></g></g><g transform="translate(42.127 34.543)"><g clip-path="url(#m)"><rect width="5.725" height="4.811" transform="translate(-0.709 0.532) rotate(-36.87)" fill="url(#n)"/></g></g><g transform="translate(30.164 0)"><g clip-path="url(#o)"><rect width="53.781" height="56.015" transform="matrix(0.8, -0.6, 0.6, 0.8, -21.518, 16.128)" fill="url(#p)"/></g></g><g clip-path="url(#q)"><text transform="translate(0.635 71.229)" fill="#fff" font-size="7" font-family="Cairo-Regular, Cairo"><tspan x="0" y="0">Elucidation For Accounting Records</tspan></text></g><path d="M8.524,438.842a1.441,1.441,0,0,1-.687-.7,2.842,2.842,0,0,1-.219-1.194,2.959,2.959,0,0,1,.219-1.215A1.474,1.474,0,0,1,8.524,435a2.616,2.616,0,0,1,1.2-.241h1.924v3.8h-1.1v-3.092l.292.249H9.722a1.585,1.585,0,0,0-.584.09.573.573,0,0,0-.322.352,2.362,2.362,0,0,0-.1.786,2.408,2.408,0,0,0,.09.76.516.516,0,0,0,.313.335,1.8,1.8,0,0,0,.6.082h2.835v.953A39.76,39.76,0,0,1,8.524,438.842Zm.176-4.621v-.962H9.8v.962Zm1.177,0v-.962h1.1v.962Zm2.68,4.853q-.1,0-.137-.133a1.436,1.436,0,0,1-.034-.348,1.381,1.381,0,0,1,.034-.343q.034-.129.137-.129Zm0,0v-.953q.1,0,.137.129a1.381,1.381,0,0,1,.034.343,1.436,1.436,0,0,1-.034.348Q12.66,439.074,12.557,439.074Zm0,0v-.953h1.537l-.627.524v-3.883h1.091v4.312Zm.9,1.8v-.962h1.1v.962Zm1.1-1.8v-.953h.911v.953Zm.911,0q-.1,0-.137-.133a1.442,1.442,0,0,1-.034-.348,1.387,1.387,0,0,1,.034-.343q.035-.129.137-.129Zm0,0v-.953q.1,0,.137.129a1.387,1.387,0,0,1,.034.343,1.442,1.442,0,0,1-.034.348Q15.572,439.074,15.469,439.074Zm0,0v-.953h1.254l-.249.258v-2.74h1.1v3.436Zm2.1,0v-.953h.73a.877.877,0,0,0,.421-.082.475.475,0,0,0,.2-.335,3.826,3.826,0,0,0,.056-.76v-1.735h1.1v1.735a3.358,3.358,0,0,1-.189,1.228,1.3,1.3,0,0,1-.58.687,2.085,2.085,0,0,1-1.009.215Zm2.886,0a1.855,1.855,0,0,1-.683-.133,2.12,2.12,0,0,1-.631-.391l.679-.7a1.305,1.305,0,0,0,.322.21.786.786,0,0,0,.314.064h1.606l-.567.515v-1.924q0-.146-.03-.425t-.082-.636q-.052-.356-.129-.726l1.074-.163q.06.309.12.687t.1.717a4.57,4.57,0,0,1,.043.545v2.362Zm3.522,0v-6.081h1.091v6.081Zm1.091,0v-.953h.979v.953Zm.979,0q-.1,0-.137-.133a1.436,1.436,0,0,1-.034-.348,1.381,1.381,0,0,1,.034-.343q.034-.129.137-.129Zm0,0v-.953q.1,0,.137.129a1.388,1.388,0,0,1,.034.343,1.443,1.443,0,0,1-.034.348Q26.154,439.074,26.051,439.074Zm0,0v-.953h3.7l-.369.3v-1.649a.956.956,0,0,0-.322-.782,1.587,1.587,0,0,0-1.018-.266q-.206,0-.554.03t-.76.09l-.112-.868a7.473,7.473,0,0,1,.752-.155,5.021,5.021,0,0,1,.76-.06,2.927,2.927,0,0,1,1.224.241,1.945,1.945,0,0,1,.829.687,1.894,1.894,0,0,1,.3,1.082v2.3Zm4.432,0v-.953h.9v.953Zm.9,0q-.1,0-.137-.133a1.442,1.442,0,0,1-.034-.348,1.387,1.387,0,0,1,.034-.343q.035-.129.137-.129Zm0,0v-.953q.1,0,.137.129a1.387,1.387,0,0,1,.034.343,1.442,1.442,0,0,1-.034.348Q31.488,439.074,31.385,439.074Zm0,0v-.953h4.484l-.524.438v-1.615a2.067,2.067,0,0,0-.107-.747.684.684,0,0,0-.365-.382,1.8,1.8,0,0,0-.722-.116,5.021,5.021,0,0,0-.691.047,2.122,2.122,0,0,0-.537.133l.679-.644q-.052.2-.1.5t-.077.644q-.03.344-.03.67,0,.309.03.64t.069.58q.039.249.064.344l-1.048.292q-.035-.12-.086-.4t-.086-.653q-.035-.378-.034-.807t.039-.82q.039-.4.1-.726t.112-.515a3.633,3.633,0,0,1,.631-.155,5.519,5.519,0,0,1,.966-.077,3.307,3.307,0,0,1,1.276.215,1.489,1.489,0,0,1,.764.7,2.779,2.779,0,0,1,.253,1.288v2.122Zm5.059,0v-.953h.9v.953Zm.9,0q-.1,0-.137-.133a1.443,1.443,0,0,1-.034-.348,1.388,1.388,0,0,1,.034-.343q.035-.129.137-.129Zm0,0v-.953q.1,0,.137.129a1.381,1.381,0,0,1,.034.343,1.436,1.436,0,0,1-.034.348Q37.45,439.074,37.346,439.074Zm0,0v-.953h.979v.953Zm.979,0v-6.081h1.1v6.081Zm2.482,0v-6.081H41.9v6.081Zm6.872,0a3.458,3.458,0,0,1-2.079-.528,1.827,1.827,0,0,1-.713-1.568,3.977,3.977,0,0,1,.026-.438q.026-.232.064-.442t.073-.374q.034-.163.051-.241l1.065.206q-.026.138-.069.352t-.077.46a3.3,3.3,0,0,0-.034.46,1.149,1.149,0,0,0,.189.7,1.016,1.016,0,0,0,.58.357,3.9,3.9,0,0,0,.975.1h2.328v-3.359h1.1v4.312Zm-.833-4.02v-.962h1.1v.962Zm1.177,0v-.962h1.1v.962Zm4.02,4.02v-.953h4.346l-.533.541v-5.669h1.1v6.081Zm1.22-.953V434.2h1.091v3.925Zm3.693.953v-.953h.9v.953Zm.9,0q-.1,0-.137-.133a1.435,1.435,0,0,1-.034-.348,1.381,1.381,0,0,1,.034-.343q.034-.129.137-.129Zm0,0v-.953h3.7l-.369.3v-1.649a.956.956,0,0,0-.322-.782,1.587,1.587,0,0,0-1.018-.266q-.206,0-.554.03t-.76.09l-.112-.868a7.474,7.474,0,0,1,.752-.155,5.021,5.021,0,0,1,.76-.06,2.927,2.927,0,0,1,1.224.241,1.944,1.944,0,0,1,.829.687,1.894,1.894,0,0,1,.3,1.082v2.3Zm0,0v-.953q.1,0,.137.129a1.382,1.382,0,0,1,.034.343,1.436,1.436,0,0,1-.034.348Q57.961,439.074,57.858,439.074Zm1.675,1.8v-.962h1.1v.962Zm2.757-1.8v-.953h.9v.953Zm.9,0q-.1,0-.137-.133a1.442,1.442,0,0,1-.034-.348,1.387,1.387,0,0,1,.034-.343q.035-.129.137-.129Zm0,0v-.953q.1,0,.137.129a1.382,1.382,0,0,1,.034.343,1.436,1.436,0,0,1-.034.348Q63.3,439.074,63.192,439.074Zm0,0v-.953h1.254l-.249.258v-2.74h1.1v3.436Zm2.1,0v-.953h.73a.877.877,0,0,0,.421-.082.475.475,0,0,0,.2-.335,3.826,3.826,0,0,0,.056-.76v-1.735h1.1v1.735a3.358,3.358,0,0,1-.189,1.228,1.3,1.3,0,0,1-.58.687,2.085,2.085,0,0,1-1.009.215Zm2.886,0a1.856,1.856,0,0,1-.683-.133,2.12,2.12,0,0,1-.631-.391l.679-.7a1.305,1.305,0,0,0,.322.21.786.786,0,0,0,.314.064h1.606l-.567.515v-1.924q0-.146-.03-.425t-.082-.636q-.051-.356-.129-.726l1.074-.163q.06.309.12.687t.1.717a4.57,4.57,0,0,1,.043.545v2.362Zm2.139,0v-.953h.911v.953Zm.911,0q-.1,0-.137-.133a1.442,1.442,0,0,1-.034-.348,1.388,1.388,0,0,1,.034-.343q.035-.129.137-.129Zm0,0v-.953q.094,0,.133.129a1.23,1.23,0,0,1,.039.343,1.278,1.278,0,0,1-.039.348Q71.327,439.074,71.232,439.074Zm0,0v-.953h.979v.953Zm.979,0v-6.081h1.1v6.081ZM78.7,441.2a3.091,3.091,0,0,1-1.314-.271,2.251,2.251,0,0,1-.919-.747,1.831,1.831,0,0,1-.335-1.078q0-.18.026-.464t.073-.636q.047-.352.1-.717t.107-.709l1.082.146q-.086.584-.155,1.061t-.1.812q-.035.335-.034.5a1.039,1.039,0,0,0,.176.6,1.164,1.164,0,0,0,.507.4,1.936,1.936,0,0,0,.786.146,1.845,1.845,0,0,0,.782-.142.969.969,0,0,0,.442-.387,1.1,1.1,0,0,0,.142-.563v-4.4h1.1v4.4a1.845,1.845,0,0,1-.322,1.087,2.09,2.09,0,0,1-.876.709A3.059,3.059,0,0,1,78.7,441.2Zm-.593-6.717v-.962h1.1v.962Zm3.058,2.087v-.962h1.812v.962Zm1.812,2.5v-4.312h1.1v4.312Zm1.1,0v-.953H84.8a.9.9,0,0,0,.425-.082.47.47,0,0,0,.206-.335,3.827,3.827,0,0,0,.056-.76v-1.735h1.1v1.735a3.358,3.358,0,0,1-.189,1.228,1.3,1.3,0,0,1-.584.687,2.11,2.11,0,0,1-1.014.215Zm.67-5.094v-.962h1.065v.962Zm.816-1.3v-.842h.953v.842Zm1.4,6.391a1.855,1.855,0,0,1-.683-.133,2.12,2.12,0,0,1-.631-.391l.679-.7a1.122,1.122,0,0,0,.322.21.828.828,0,0,0,.314.064h1.606l-.567.515v-1.924q0-.146-.03-.425t-.082-.636q-.052-.356-.129-.726l1.074-.163q.06.309.12.687t.1.717a5.036,5.036,0,0,1,.039.545v2.362Zm-.7-5.094v-.962H87.32v.962Zm2.826,5.094v-.953H90v.953Zm.91,0q-.1,0-.137-.133a1.441,1.441,0,0,1-.034-.348,1.387,1.387,0,0,1,.034-.343q.035-.129.137-.129Zm0,0v-.953h1.95l-.636.524v-3.883h1.1v4.312Zm0,0v-.953q.1,0,.137.129a1.382,1.382,0,0,1,.034.343,1.436,1.436,0,0,1-.034.348Q90.1,439.074,90,439.074Zm.344,1.761v-.962h1.1v.962Zm1.177,0v-.962h1.1v.962Zm1.873-1.761v-.953H96.52l-.756.653v-1.486a2.86,2.86,0,0,0-.125-.949.819.819,0,0,0-.421-.481,1.886,1.886,0,0,0-.8-.142h-.7v-.953h.7a3.16,3.16,0,0,1,1.336.253,1.732,1.732,0,0,1,.829.807,3.228,3.228,0,0,1,.283,1.465v1.787Zm3.47,0v-.953h.911v.953Zm.911,0q-.1,0-.137-.133a1.442,1.442,0,0,1-.034-.348,1.388,1.388,0,0,1,.034-.343q.035-.129.137-.129Zm0,0v-.953q.1,0,.137.129a1.382,1.382,0,0,1,.034.343,1.436,1.436,0,0,1-.034.348Q97.877,439.074,97.774,439.074Zm0,0v-.953h1.254l-.249.258v-2.74h1.1v3.436Zm2.1,0v-.953h.73a.877.877,0,0,0,.421-.082.475.475,0,0,0,.2-.335,3.825,3.825,0,0,0,.056-.76v-1.735h1.1v1.735a3.355,3.355,0,0,1-.189,1.228,1.3,1.3,0,0,1-.58.687,2.084,2.084,0,0,1-1.009.215Zm2.886,0a1.856,1.856,0,0,1-.683-.133,2.118,2.118,0,0,1-.631-.391l.678-.7a1.305,1.305,0,0,0,.322.21.786.786,0,0,0,.314.064h1.606l-.567.515v-1.924q0-.146-.03-.425t-.082-.636q-.051-.356-.129-.726l1.074-.163q.06.309.12.687t.1.717a4.57,4.57,0,0,1,.043.545v2.362Zm4.827,2.1a4.963,4.963,0,0,1-.666-.047q-.348-.047-.743-.125l.163-.876q.438.052.739.077t.507.026a1.438,1.438,0,0,0,.906-.228.83.83,0,0,0,.279-.683V435.51l.292.206h-1.117a1.585,1.585,0,0,0-.584.09.573.573,0,0,0-.322.352,2.362,2.362,0,0,0-.1.786,2.408,2.408,0,0,0,.09.76.516.516,0,0,0,.313.335,1.8,1.8,0,0,0,.6.082h.825v.953h-.825a2.7,2.7,0,0,1-1.2-.232,1.441,1.441,0,0,1-.687-.7,2.842,2.842,0,0,1-.219-1.194,2.959,2.959,0,0,1,.219-1.215,1.474,1.474,0,0,1,.687-.726,2.616,2.616,0,0,1,1.2-.241h1.924v4.552a1.777,1.777,0,0,1-.279,1.005,1.741,1.741,0,0,1-.795.64A3.08,3.08,0,0,1,107.592,441.179Zm2.285-2.1v-.953h.91v.953Zm.911,0q-.1,0-.137-.133a1.435,1.435,0,0,1-.034-.348,1.381,1.381,0,0,1,.034-.343q.034-.129.137-.129Zm0,0v-.953q.1,0,.137.129a1.382,1.382,0,0,1,.034.343,1.436,1.436,0,0,1-.034.348Q110.89,439.074,110.787,439.074Zm0,0v-.953h.979v.953Zm.979,0v-6.081h1.1v6.081Zm2.482,0v-6.081h1.091v6.081Z" transform="translate(-6.676 -378.424)" fill="#cc9035"/></svg>