<svg id="Group_241" data-name="Group 241" xmlns="http://www.w3.org/2000/svg" xmlns:xlink="http://www.w3.org/1999/xlink" width="299.502" height="207.213" viewBox="0 0 299.502 207.213">
  <defs>
    <clipPath id="clip-path">
      <path id="Path_1205" data-name="Path 1205" d="M491.009,62.639c.984.87,1.641,1.48,2.327,2.053,3.932,3.284,3.935,3.281,1.565,7.473-4.9,6.758-9.538,12.631-14.832,19.084-.213.164-.9,1.046-1.071,1.244a176.5,176.5,0,0,1-30.864,28.11,4.145,4.145,0,0,1-.98.363c6.628-.865,25.57-12.234,33.076-19.129,0,0,12.273-11.076,15.644-14.848,0,0,3.621-4.141,5.836-6.706a13.856,13.856,0,0,0,1.053-1.386,8.967,8.967,0,0,1,2.631-2.953c1.645-.859,3,1.15,4.569,1.7.8.28,1.326.541,1.43-.676.6-7.056,1.245-14.108,1.911-21.565l-22.295,7.236" transform="translate(-447.154 -55.403)" fill="none"/>
    </clipPath>
    <linearGradient id="linear-gradient" x1="-1.495" y1="2.19" x2="-1.492" y2="2.19" gradientUnits="objectBoundingBox">
      <stop offset="0" stop-color="#cc9035"/>
      <stop offset="0.021" stop-color="#cc9035"/>
      <stop offset="0.197" stop-color="#d9a64a"/>
      <stop offset="0.336" stop-color="#e6c061"/>
      <stop offset="0.509" stop-color="#f6dc7a"/>
      <stop offset="0.575" stop-color="#edcd6d"/>
      <stop offset="0.658" stop-color="#e6c061"/>
      <stop offset="0.805" stop-color="#d9a64a"/>
      <stop offset="0.996" stop-color="#cc9035"/>
      <stop offset="1" stop-color="#cc9035"/>
    </linearGradient>
    <clipPath id="clip-path-2">
      <path id="Path_1206" data-name="Path 1206" d="M469.033,225.419q-2.629,1.27-5.373,2.275a171.581,171.581,0,0,1-28.829,7.978c3.091,2.236,5.685,4.426,8.949,3.962A104.823,104.823,0,0,0,467.2,233.79l.028-.009a105.75,105.75,0,0,0,18.665-7.543c.826-.414,1.934-.6,1.628-2.082-.543-2.638-.915-5.311-1.437-8.443a108.357,108.357,0,0,1-17.052,9.706" transform="translate(-434.83 -215.713)" fill="none"/>
    </clipPath>
    <linearGradient id="linear-gradient-2" x1="-2.539" y1="2.881" x2="-2.534" y2="2.881" xlink:href="#linear-gradient"/>
    <clipPath id="clip-path-3">
      <path id="Path_1207" data-name="Path 1207" d="M471.7,164.048c-5.489,4.11-11.052,8.111-16.891,11.716a154.138,154.138,0,0,1-26.228,12.09c-.593.2-1.782.118-1.579,1.1.234,1.124,1.327,1.024,2.255.823,9.344-2.03,18.522-4.582,27.22-8.647a94.392,94.392,0,0,0,15.92-7.631h0a114.5,114.5,0,0,0,14.923-8.917c.724-.49,1.691-.872,1.525-2.037-.591-4.154-1.2-8.307-1.881-13.061A184.845,184.845,0,0,1,471.7,164.048" transform="translate(-426.975 -149.48)" fill="none"/>
    </clipPath>
    <linearGradient id="linear-gradient-3" x1="-1.862" y1="2.455" x2="-1.858" y2="2.455" xlink:href="#linear-gradient"/>
    <clipPath id="clip-path-4">
      <path id="Path_1208" data-name="Path 1208" d="M396.327,110.073h0c-15.017,2.8-27.4,17.153-27.845,32.57-.387,13.465,4.58,24.435,15.792,32.29a32.136,32.136,0,0,0,20.243,6.111,35.826,35.826,0,0,0,20.8-6.517c5.877,5.826,11.78,11.626,17.606,17.5,1.114,1.124,1.777,1.224,2.925-.127.41-.482.852-.938,1.3-1.389,1.076-1.093,2.034-2.2,2.968-3.162a16.586,16.586,0,0,1,1.223-1.122c1.9-1.595,2.214-2.42.52-4.027-4.618-4.383-8.993-9.023-13.589-13.431-2.367-2.27-4.927-4.279-1.366-7.857-2.535.6-4.656,1.337-6.818,1.927a10.278,10.278,0,0,0-5.457,3.128A9.749,9.749,0,0,1,423.549,167a31.821,31.821,0,0,1-15.777,7.1,30.171,30.171,0,0,1-22.992-7.634c-.594-.685-1.181-1.375-1.783-2.052a28.671,28.671,0,0,1-2.9-33.8c4.088-6.579,10.041-10.637,17.312-12.947,8.688-1.626,16.773-.409,24.088,4.882,1.4,1.013,2.487,3.41,4.173,2.83,1.467-.5,2.32-2.668,3.566-3.984,1.086-1.148.857-1.872-.273-2.851-7.184-6.222-15.116-9.5-23.9-9.5a39.04,39.04,0,0,0-8.737,1.027" transform="translate(-368.462 -109.046)" fill="none"/>
    </clipPath>
    <linearGradient id="linear-gradient-4" x1="-0.903" y1="1.581" x2="-0.9" y2="1.581" xlink:href="#linear-gradient"/>
    <clipPath id="clip-path-5">
      <path id="Path_1209" data-name="Path 1209" d="M609.587,341.051q-3.717,3.784-7.416,7.587c-.372.383-.865.866-.32,1.384,1.4,1.331,2.369,3.264,4.769,3.2,3.537-.092,7.617-4.06,7.69-7.6.027-1.3-2.485-4.867-3.589-5.128a.94.94,0,0,0-.215-.026c-.412,0-.658.311-.92.578" transform="translate(-601.609 -340.473)" fill="none"/>
    </clipPath>
    <linearGradient id="linear-gradient-5" x1="-11.06" y1="5.25" x2="-11.041" y2="5.25" xlink:href="#linear-gradient"/>
    <clipPath id="clip-path-6">
      <path id="Path_1210" data-name="Path 1210" d="M419.541,137.236c-6.647.673-12.074,3.842-16.558,8.666-12.862,13.833-6.582,37.5,10.479,43.372,7.622,3.351,22.05,1.4,27.137-5.922-8.14,5.611-16.985,7.6-26.38,4.714a15.759,15.759,0,0,1-1.721-.815,25.452,25.452,0,0,1-6.84-41.817,24.682,24.682,0,0,1,12.531-6.182,23.646,23.646,0,0,1,7.772-.267,24.9,24.9,0,0,1,14.157,6.242c.545.5,1.464,1.554,2.079.94.917-.917-.431-1.57-.992-2.067a26.378,26.378,0,0,0-17.891-7.117,28.743,28.743,0,0,0-3.774.254" transform="translate(-396.143 -136.982)" fill="none"/>
    </clipPath>
    <linearGradient id="linear-gradient-6" x1="-1.536" y1="2.245" x2="-1.531" y2="2.245" xlink:href="#linear-gradient"/>
    <clipPath id="clip-path-7">
      <path id="Path_1211" data-name="Path 1211" d="M351.709,279.457c-.42.128-.852.218-1.282.307-2.179.449-4.146.817-6.245,1.253-1.135.235-2.39.1-3.617,1.375a96.056,96.056,0,0,0,16.511.665c-1.191-2.568-2.433-3.8-4.106-3.8a4.333,4.333,0,0,0-1.262.205" transform="translate(-340.566 -279.252)" fill="none"/>
    </clipPath>
    <linearGradient id="linear-gradient-7" x1="-7.387" y1="8.944" x2="-7.365" y2="8.944" xlink:href="#linear-gradient"/>
    <clipPath id="clip-path-8">
      <path id="Path_1212" data-name="Path 1212" d="M291.339.445c0,.024,0,.048,0,.072h-.023a.545.545,0,0,0,.022-.072M243.851,3.468q.145,57.688.066,115.377c0,.547.037,1.1,0,1.64-.1,1.291.466,1.766,1.759,1.75H333.9c.829,0,1.713.069,1.711-1.17,0-3.571,0-7.143,0-10.993-11.232,3.752-21.807,3.167-32.093-1.791-2.576-1.806-5.362-3.321-7.657-5.512a2.969,2.969,0,0,0-2.2-.844c-2.613.016-5.226,0-7.839,0h0c-5.468-.037-10.936-.119-16.4-.081-1.486.01-2.092-.338-2.079-1.961q.1-13.4,0-26.807c-.012-1.607.571-2,2.071-1.965,1.608.042,3.218.031,4.828.021,1.947-.013,3.894-.026,5.837.053,1.814.074,2.357-.565,2.44-2.3a33.47,33.47,0,0,1,3.31-12.609c.833-1.784,1.783-3.514,2.831-5.567-6.531,0-12.72-.078-18.9.047-1.89.038-2.463-.417-2.432-2.375.121-7.475.048-14.953.048-22.43,0-5.284,0-5.306,5.369-5.308q12.9,0,25.8,0,13.086,0,26.173,0l8.6.034v-.408h0c0-6.786.056-13.188.056-19.745a.831.831,0,0,0-.887-.451L307.137.2l-15.8,0-25.72.012h0C263.844.2,262.073.2,260.3.2c-4.334,0-8.667,0-12.993-.188C247.133.005,246.964,0,246.8,0c-2.375,0-2.96.874-2.954,3.467" transform="translate(-243.851 -0.001)" fill="none"/>
    </clipPath>
    <linearGradient id="linear-gradient-8" x1="-0.373" y1="1.455" x2="-0.371" y2="1.455" xlink:href="#linear-gradient"/>
    <clipPath id="clip-path-9">
      <rect id="Rectangle_1594" data-name="Rectangle 1594" width="299.501" height="207.213" fill="none"/>
    </clipPath>
  </defs>
  <g id="Group_221" data-name="Group 221" transform="translate(151.003 18.709)">
    <g id="Group_220" data-name="Group 220" clip-path="url(#clip-path)">
      <rect id="Rectangle_1586" data-name="Rectangle 1586" width="92.257" height="92.139" transform="translate(-31.47 23.602) rotate(-36.87)" fill="url(#linear-gradient)"/>
    </g>
  </g>
  <g id="Group_223" data-name="Group 223" transform="translate(146.841 72.846)">
    <g id="Group_222" data-name="Group 222" clip-path="url(#clip-path-2)">
      <rect id="Rectangle_1587" data-name="Rectangle 1587" width="57.03" height="51.307" transform="matrix(0.8, -0.6, 0.6, 0.8, -11.705, 8.779)" fill="url(#linear-gradient-2)"/>
    </g>
  </g>
  <g id="Group_225" data-name="Group 225" transform="translate(144.188 50.479)">
    <g id="Group_224" data-name="Group 224" clip-path="url(#clip-path-3)">
      <rect id="Rectangle_1588" data-name="Rectangle 1588" width="74.126" height="69.803" transform="matrix(0.8, -0.6, 0.6, 0.8, -19.666, 14.614)" fill="url(#linear-gradient-3)"/>
    </g>
  </g>
  <g id="Group_227" data-name="Group 227" transform="translate(124.429 36.825)">
    <g id="Group_226" data-name="Group 226" clip-path="url(#clip-path-4)">
      <rect id="Rectangle_1589" data-name="Rectangle 1589" width="118.886" height="118.638" transform="translate(-40.786 30.315) rotate(-36.87)" fill="url(#linear-gradient-4)"/>
    </g>
  </g>
  <g id="Group_229" data-name="Group 229" transform="translate(203.162 114.977)">
    <g id="Group_228" data-name="Group 228" clip-path="url(#clip-path-5)">
      <rect id="Rectangle_1590" data-name="Rectangle 1590" width="18.112" height="18.069" transform="matrix(0.8, -0.6, 0.6, 0.8, -6.453, 4.613)" fill="url(#linear-gradient-5)"/>
    </g>
  </g>
  <g id="Group_231" data-name="Group 231" transform="translate(133.777 46.259)">
    <g id="Group_230" data-name="Group 230" clip-path="url(#clip-path-6)">
      <rect id="Rectangle_1591" data-name="Rectangle 1591" width="75.78" height="76.309" transform="translate(-32.73 20.031) rotate(-36.87)" fill="url(#linear-gradient-6)"/>
    </g>
  </g>
  <g id="Group_233" data-name="Group 233" transform="translate(115.008 94.303)">
    <g id="Group_232" data-name="Group 232" clip-path="url(#clip-path-7)">
      <rect id="Rectangle_1592" data-name="Rectangle 1592" width="15.629" height="13.134" transform="translate(-1.936 1.452) rotate(-36.87)" fill="url(#linear-gradient-7)"/>
    </g>
  </g>
  <g id="Group_235" data-name="Group 235" transform="translate(82.348 0)">
    <g id="Group_234" data-name="Group 234" clip-path="url(#clip-path-8)">
      <rect id="Rectangle_1593" data-name="Rectangle 1593" width="146.823" height="152.924" transform="matrix(0.8, -0.6, 0.6, 0.8, -58.744, 44.029)" fill="url(#linear-gradient-8)"/>
    </g>
  </g>
  <g id="Group_237" data-name="Group 237">
    <g id="Group_236" data-name="Group 236" clip-path="url(#clip-path-9)">
      <text id="Elucidation_For_Accounting_Records" data-name="Elucidation For Accounting Records" transform="translate(0.477 191.649)" fill="#fff" font-size="19" font-family="Cairo-Regular, Cairo"><tspan x="0" y="0">Elucidation For Accounting Records</tspan></text>
    </g>
  </g>
  <path id="Path_1213" data-name="Path 1213" d="M10.092,450.953a3.935,3.935,0,0,1-1.876-1.923,7.759,7.759,0,0,1-.6-3.259,8.08,8.08,0,0,1,.6-3.318,4.024,4.024,0,0,1,1.876-1.981,7.14,7.14,0,0,1,3.271-.657h5.253V450.18h-3v-8.442l.8.68H13.363a4.327,4.327,0,0,0-1.595.246,1.565,1.565,0,0,0-.879.961,6.449,6.449,0,0,0-.269,2.146,6.573,6.573,0,0,0,.246,2.075,1.41,1.41,0,0,0,.856.915,4.911,4.911,0,0,0,1.642.223H21.1v2.6S10.944,451.375,10.092,450.953Zm.481-12.616v-2.627h3v2.627Zm3.213,0v-2.627h3v2.627ZM21.1,451.587q-.282,0-.375-.363a3.92,3.92,0,0,1-.094-.95,3.771,3.771,0,0,1,.094-.938q.094-.352.375-.352Zm0,0v-2.6q.282,0,.375.352a3.772,3.772,0,0,1,.094.938,3.92,3.92,0,0,1-.094.95Q21.383,451.587,21.1,451.587Zm0,0v-2.6h4.2l-1.712,1.431v-10.6h2.978v11.772Zm2.462,4.9v-2.626h3v2.626Zm3-4.9v-2.6h2.486v2.6Zm2.486,0q-.281,0-.375-.363a3.938,3.938,0,0,1-.094-.95,3.788,3.788,0,0,1,.094-.938q.094-.352.375-.352Zm0,0v-2.6q.281,0,.375.352a3.788,3.788,0,0,1,.094.938,3.938,3.938,0,0,1-.094.95Q29.332,451.587,29.051,451.587Zm0,0v-2.6h3.424l-.68.7v-7.48h3v9.38Zm5.745,0v-2.6H36.79a2.4,2.4,0,0,0,1.149-.223,1.3,1.3,0,0,0,.551-.915,10.446,10.446,0,0,0,.152-2.075v-4.737h3v4.737a9.168,9.168,0,0,1-.516,3.353A3.549,3.549,0,0,1,39.545,451a5.692,5.692,0,0,1-2.756.586Zm7.879,0a5.065,5.065,0,0,1-1.864-.363,5.791,5.791,0,0,1-1.724-1.067l1.853-1.923a3.562,3.562,0,0,0,.879.574,2.145,2.145,0,0,0,.856.176h4.385l-1.548,1.407v-5.253q0-.4-.082-1.161t-.223-1.736q-.141-.972-.352-1.981l2.931-.446q.164.845.328,1.876t.281,1.958a12.473,12.473,0,0,1,.117,1.489v6.449Zm9.614,0v-16.6h2.978v16.6Zm2.978,0v-2.6h2.673v2.6Zm2.673,0q-.282,0-.375-.363a3.92,3.92,0,0,1-.094-.95,3.772,3.772,0,0,1,.094-.938q.094-.352.375-.352Zm0,0v-2.6q.281,0,.375.352a3.79,3.79,0,0,1,.094.938,3.939,3.939,0,0,1-.094.95Q58.222,451.587,57.941,451.587Zm0,0v-2.6H68.048l-1.008.821v-4.5a2.61,2.61,0,0,0-.879-2.134,4.332,4.332,0,0,0-2.779-.727q-.563,0-1.513.082t-2.075.246l-.3-2.369a20.356,20.356,0,0,1,2.052-.422,13.708,13.708,0,0,1,2.075-.164,7.988,7.988,0,0,1,3.342.657,5.307,5.307,0,0,1,2.263,1.876,5.17,5.17,0,0,1,.821,2.955v6.284Zm12.1,0v-2.6H72.5v2.6Zm2.462,0q-.281,0-.375-.363a3.937,3.937,0,0,1-.094-.95,3.788,3.788,0,0,1,.094-.938q.094-.352.375-.352Zm0,0v-2.6q.281,0,.375.352a3.788,3.788,0,0,1,.094.938,3.938,3.938,0,0,1-.094.95Q72.785,451.587,72.5,451.587Zm0,0v-2.6H84.744l-1.43,1.2v-4.409a5.643,5.643,0,0,0-.293-2.04,1.868,1.868,0,0,0-1-1.043,4.922,4.922,0,0,0-1.97-.317,13.7,13.7,0,0,0-1.888.129,5.793,5.793,0,0,0-1.466.363l1.853-1.759q-.141.54-.27,1.36t-.211,1.759q-.083.938-.082,1.829,0,.844.082,1.747t.188,1.583q.105.68.176.938l-2.861.8q-.094-.328-.235-1.079t-.234-1.782q-.094-1.032-.094-2.2,0-1.149.106-2.239t.27-1.982q.164-.891.3-1.407A9.925,9.925,0,0,1,77.416,440a15.071,15.071,0,0,1,2.638-.211,9.028,9.028,0,0,1,3.482.586,4.066,4.066,0,0,1,2.087,1.9,7.586,7.586,0,0,1,.692,3.517v5.792Zm13.812,0v-2.6h2.462v2.6Zm2.462,0q-.281,0-.375-.363a3.94,3.94,0,0,1-.094-.95,3.79,3.79,0,0,1,.094-.938q.094-.352.375-.352Zm0,0v-2.6q.282,0,.375.352a3.771,3.771,0,0,1,.094.938,3.92,3.92,0,0,1-.094.95Q89.059,451.587,88.778,451.587Zm0,0v-2.6h2.674v2.6Zm2.674,0v-16.6h3v16.6Zm6.777,0v-16.6h2.978v16.6Zm18.76,0a9.44,9.44,0,0,1-5.675-1.442,4.988,4.988,0,0,1-1.947-4.28,10.859,10.859,0,0,1,.071-1.2q.07-.633.176-1.207t.2-1.02q.093-.445.14-.657l2.908.563q-.07.375-.188.962t-.211,1.255a9.009,9.009,0,0,0-.094,1.254,3.136,3.136,0,0,0,.516,1.911,2.773,2.773,0,0,0,1.583.973,10.633,10.633,0,0,0,2.661.281h6.355v-9.169h3v11.772Zm-2.274-10.975v-2.626h3v2.626Zm3.212,0v-2.626h3v2.626ZM128.9,451.587v-2.6h11.866l-1.454,1.477V434.984h3v16.6Zm3.33-2.6V438.267h2.978v10.716Zm10.083,2.6v-2.6h2.462v2.6Zm2.462,0q-.282,0-.375-.363a3.92,3.92,0,0,1-.094-.95,3.771,3.771,0,0,1,.094-.938q.094-.352.375-.352Zm0,0v-2.6h10.107l-1.008.821v-4.5a2.61,2.61,0,0,0-.879-2.134,4.333,4.333,0,0,0-2.779-.727q-.563,0-1.513.082t-2.075.246l-.3-2.369a20.356,20.356,0,0,1,2.052-.422,13.708,13.708,0,0,1,2.075-.164,7.988,7.988,0,0,1,3.342.657,5.305,5.305,0,0,1,2.263,1.876,5.17,5.17,0,0,1,.821,2.955v6.284Zm0,0v-2.6q.282,0,.375.352a3.772,3.772,0,0,1,.094.938,3.921,3.921,0,0,1-.094.95Q145.057,451.587,144.775,451.587Zm4.573,4.9v-2.626h3v2.626Zm7.527-4.9v-2.6h2.462v2.6Zm2.462,0q-.281,0-.375-.363a3.938,3.938,0,0,1-.094-.95,3.789,3.789,0,0,1,.094-.938q.094-.352.375-.352Zm0,0v-2.6q.282,0,.375.352a3.772,3.772,0,0,1,.094.938,3.921,3.921,0,0,1-.094.95Q159.619,451.587,159.338,451.587Zm0,0v-2.6h3.424l-.68.7v-7.48h3v9.38Zm5.745,0v-2.6h1.993a2.4,2.4,0,0,0,1.149-.223,1.3,1.3,0,0,0,.551-.915,10.443,10.443,0,0,0,.152-2.075v-4.737h3v4.737a9.169,9.169,0,0,1-.516,3.353A3.551,3.551,0,0,1,169.831,451a5.692,5.692,0,0,1-2.756.586Zm7.879,0a5.067,5.067,0,0,1-1.864-.363,5.791,5.791,0,0,1-1.724-1.067l1.853-1.923a3.562,3.562,0,0,0,.879.574,2.145,2.145,0,0,0,.856.176h4.385l-1.548,1.407v-5.253q0-.4-.082-1.161t-.223-1.736q-.14-.972-.352-1.981l2.931-.446q.164.845.328,1.876t.281,1.958a12.473,12.473,0,0,1,.117,1.489v6.449Zm5.839,0v-2.6h2.486v2.6Zm2.486,0q-.281,0-.375-.363a3.938,3.938,0,0,1-.094-.95,3.788,3.788,0,0,1,.094-.938q.094-.352.375-.352Zm0,0v-2.6q.258,0,.363.352a3.358,3.358,0,0,1,.106.938,3.49,3.49,0,0,1-.106.95Q181.544,451.587,181.286,451.587Zm0,0v-2.6h2.673v2.6Zm2.673,0v-16.6h3v16.6Zm17.7,5.815a8.439,8.439,0,0,1-3.588-.738,6.147,6.147,0,0,1-2.509-2.04,5,5,0,0,1-.915-2.943q0-.492.07-1.266t.2-1.735q.128-.961.281-1.958t.293-1.934l2.954.4q-.234,1.6-.422,2.9t-.281,2.216q-.094.914-.094,1.36a2.837,2.837,0,0,0,.481,1.642,3.176,3.176,0,0,0,1.384,1.1,5.284,5.284,0,0,0,2.145.4,5.037,5.037,0,0,0,2.134-.387,2.646,2.646,0,0,0,1.208-1.055,3.01,3.01,0,0,0,.387-1.536V439.815h3v12.006a5.037,5.037,0,0,1-.879,2.967,5.7,5.7,0,0,1-2.392,1.934A8.352,8.352,0,0,1,201.664,457.4Zm-1.618-18.338v-2.626h3v2.626Zm8.348,5.7v-2.626h4.948v2.626Zm4.948,6.824V439.815h3v11.772Zm3,0v-2.6h1.97a2.467,2.467,0,0,0,1.161-.223,1.283,1.283,0,0,0,.563-.915,10.447,10.447,0,0,0,.152-2.075v-4.737h3v4.737a9.169,9.169,0,0,1-.516,3.353A3.535,3.535,0,0,1,221.081,451a5.761,5.761,0,0,1-2.767.586Zm1.829-13.906v-2.626h2.908v2.626Zm2.228-3.541v-2.3H223v2.3Zm3.822,17.447a5.065,5.065,0,0,1-1.864-.363,5.791,5.791,0,0,1-1.724-1.067l1.853-1.923a3.063,3.063,0,0,0,.879.574,2.259,2.259,0,0,0,.856.176h4.385l-1.548,1.407v-5.253q0-.4-.082-1.161t-.223-1.736q-.141-.972-.352-1.981l2.931-.446q.164.845.328,1.876t.269,1.958a13.747,13.747,0,0,1,.106,1.489v6.449Zm-1.9-13.906v-2.626h2.884v2.626Zm7.715,13.906v-2.6h2.485v2.6Zm2.485,0q-.281,0-.375-.363a3.937,3.937,0,0,1-.094-.95,3.787,3.787,0,0,1,.094-.938q.094-.352.375-.352Zm0,0v-2.6h5.323l-1.735,1.431v-10.6h3v11.772Zm0,0v-2.6q.282,0,.375.352a3.772,3.772,0,0,1,.094.938,3.92,3.92,0,0,1-.094.95Q232.805,451.587,232.524,451.587Zm.938,4.807v-2.626h3v2.626Zm3.213,0v-2.626h3v2.626Zm5.112-4.807v-2.6h8.536l-2.064,1.782v-4.057a7.806,7.806,0,0,0-.34-2.591,2.237,2.237,0,0,0-1.149-1.313,5.149,5.149,0,0,0-2.193-.387h-1.9v-2.6h1.9a8.626,8.626,0,0,1,3.647.692,4.729,4.729,0,0,1,2.263,2.2,8.811,8.811,0,0,1,.774,4v4.877Zm9.473,0v-2.6h2.486v2.6Zm2.486,0q-.281,0-.375-.363a3.938,3.938,0,0,1-.094-.95,3.788,3.788,0,0,1,.094-.938q.094-.352.375-.352Zm0,0v-2.6q.282,0,.375.352a3.772,3.772,0,0,1,.094.938,3.92,3.92,0,0,1-.094.95Q254.027,451.587,253.746,451.587Zm0,0v-2.6h3.424l-.68.7v-7.48h3v9.38Zm5.745,0v-2.6h1.993a2.394,2.394,0,0,0,1.149-.223,1.3,1.3,0,0,0,.551-.915,10.442,10.442,0,0,0,.152-2.075v-4.737h3v4.737a9.16,9.16,0,0,1-.516,3.353A3.549,3.549,0,0,1,264.24,451a5.69,5.69,0,0,1-2.755.586Zm7.879,0a5.066,5.066,0,0,1-1.864-.363,5.784,5.784,0,0,1-1.723-1.067l1.852-1.923a3.561,3.561,0,0,0,.879.574,2.145,2.145,0,0,0,.856.176h4.385l-1.548,1.407v-5.253q0-.4-.082-1.161t-.223-1.736q-.14-.972-.352-1.981l2.931-.446q.164.845.328,1.876t.281,1.958a12.473,12.473,0,0,1,.117,1.489v6.449Zm13.179,5.745a13.538,13.538,0,0,1-1.817-.129q-.95-.129-2.028-.34l.445-2.392q1.2.141,2.017.211t1.384.07a3.924,3.924,0,0,0,2.474-.621,2.266,2.266,0,0,0,.762-1.864V441.855l.8.563h-3.048a4.327,4.327,0,0,0-1.595.246,1.565,1.565,0,0,0-.879.961,6.449,6.449,0,0,0-.27,2.146,6.573,6.573,0,0,0,.246,2.075,1.41,1.41,0,0,0,.856.915,4.911,4.911,0,0,0,1.642.223h2.251v2.6h-2.251a7.371,7.371,0,0,1-3.271-.633,3.936,3.936,0,0,1-1.876-1.923,7.76,7.76,0,0,1-.6-3.259,8.08,8.08,0,0,1,.6-3.318,4.025,4.025,0,0,1,1.876-1.981,7.14,7.14,0,0,1,3.271-.657h5.253v12.428a4.852,4.852,0,0,1-.762,2.744,4.754,4.754,0,0,1-2.169,1.747A8.406,8.406,0,0,1,280.549,457.332Zm6.238-5.745v-2.6h2.485v2.6Zm2.486,0q-.282,0-.375-.363a3.919,3.919,0,0,1-.094-.95,3.77,3.77,0,0,1,.094-.938q.094-.352.375-.352Zm0,0v-2.6q.282,0,.375.352a3.773,3.773,0,0,1,.094.938,3.922,3.922,0,0,1-.094.95Q289.554,451.587,289.272,451.587Zm0,0v-2.6h2.673v2.6Zm2.673,0v-16.6h3v16.6Zm6.777,0v-16.6H301.7v16.6Z" transform="translate(-5.045 -286.01)" fill="#cc9035"/>
</svg>
