<svg xmlns="http://www.w3.org/2000/svg" width="973.739" height="386.772" viewBox="0 0 973.739 386.772"><g fill="#fff"><path d="M 495.1048889160156 386.2722778320312 C 439.59326171875 386.2722778320312 379.0276489257812 383.3687744140625 315.0903930664062 377.6423950195312 C 263.9382629394531 373.0611267089844 210.5261383056641 366.6731262207031 156.3376312255859 358.6558837890625 C 108.1257629394531 351.5227661132812 68.2130126953125 344.3936462402344 43.22000885009766 339.6691284179688 C 18.49108123779297 334.9945678710938 3.102941513061523 331.6900634765625 0.5000097751617432 331.125732421875 L 0.5000097751617432 0.5000138878822327 L 973.23876953125 0.5000138878822327 L 973.23876953125 331.1316223144531 C 970.7504272460938 331.7081909179688 956.3573608398438 335.0086669921875 933.0777587890625 339.6720275878906 C 909.4935302734375 344.3963928222656 871.706787109375 351.5252685546875 825.6226196289062 358.6580200195312 C 773.8270263671875 366.6747741699219 722.32177734375 373.062255859375 672.5379028320312 377.6431274414062 C 610.3111572265625 383.3690185546875 550.614013671875 386.2722778320312 495.1048889160156 386.2722778320312 Z" stroke="none"/><path d="M 1 1 L 1 330.7223205566406 C 4.51251220703125 331.480224609375 19.6337890625 334.701904296875 43.3289794921875 339.1808776855469 C 68.318359375 343.9045104980469 108.2252807617188 351.0323791503906 156.4291381835938 358.1638793945312 C 210.6058959960938 366.1791381835938 264.0059814453125 372.5655212402344 315.146240234375 377.1455078125 C 379.0646362304688 382.8697509765625 439.6113891601562 385.7722778320312 495.1048889160156 385.7722778320312 C 550.596923828125 385.7722778320312 610.2762451171875 382.8699035644531 672.4853515625 377.1458740234375 C 722.2577514648438 372.5661315917969 773.7512817382812 366.1802673339844 825.53564453125 358.16552734375 C 871.6107788085938 351.0343933105469 909.3905029296875 343.9070129394531 932.9702758789062 339.1836547851562 C 955.2478637695312 334.7211303710938 969.3857421875 331.5068969726562 972.73876953125 330.7339782714844 L 972.73876953125 1 L 1 1 M 0 0 L 973.73876953125 0 L 973.73876953125 331.5286254882812 C 973.73876953125 331.5286254882812 738.5394897460938 386.7722778320312 495.1048889160156 386.7722778320312 C 251.6701049804688 386.7722778320312 0 331.5286254882812 0 331.5286254882812 L 0 0 Z" stroke="none" fill="#707070"/></g></svg>