<svg xmlns="http://www.w3.org/2000/svg" width="26.045" height="26.045" viewBox="0 0 26.045 26.045"><rect width="26.045" height="26.045" transform="translate(0 0)" fill="none"/><path d="M15.115,18.6l2.791-2.558a.854.854,0,0,1,.7-.233l.465.233,6.511,3.023c.465.233.465.465.465.93-.233,1.86-.7,3.256-1.86,4.186a6.662,6.662,0,0,1-4.883,1.86,14.169,14.169,0,0,1-6.511-1.628,30.485,30.485,0,0,1-6.511-4.651A39.609,39.609,0,0,1,2.791,14.65,32.144,32.144,0,0,1,.465,9.534,14.31,14.31,0,0,1,0,5.116,6.111,6.111,0,0,1,1.628,1.628C2.558.7,3.953.233,6.046,0a1.208,1.208,0,0,1,.93.465l3.488,6.511a.812.812,0,0,0,.233.465.854.854,0,0,1-.233.7L7.441,10.93a1.038,1.038,0,0,0,0,1.163,22.207,22.207,0,0,0,2.791,3.721,23.48,23.48,0,0,0,3.721,3.023C14.418,19.069,14.883,19.069,15.115,18.6Z" transform="translate(0 0)" fill="#d9a64a"/></svg>