<svg xmlns="http://www.w3.org/2000/svg" width="13.798" height="19.64" viewBox="0 0 13.798 19.64"><path d="M13.546,16.268,11.967,14.32V.329A.3.3,0,0,0,11.7,0H3.692c-.005,0-.01,0-.015,0A.21.21,0,0,0,3.6.022l-.023.01A.271.271,0,0,0,3.5.1L.3,4.047a.336.336,0,0,0-.053.1c0,.01-.006.02-.009.031a.375.375,0,0,0-.014.085c0,.007,0,.013,0,.021v12.5a.3.3,0,0,0,.267.329H9.7l1.58,1.947a1.454,1.454,0,0,0,1.133.581,1.637,1.637,0,0,0,1.481-1.219,2.321,2.321,0,0,0-.349-2.153Zm-2.263,1.865L7.128,13.013l1.512-1.865,4.154,5.123ZM6.9,12.36l-.362-1.936,1.571.446ZM3.425,1.124V3.95H1.133ZM.755,16.455V4.608H3.692a.3.3,0,0,0,.267-.329V.659h7.474v13L8.83,10.45l0,0a.271.271,0,0,0-.075-.062l-.022-.01L8.7,10.362l-2.456-.7A.235.235,0,0,0,6,9.752a.383.383,0,0,0-.071.307l.566,3.028c0,.012.007.024.011.036s0,.018.008.027a.328.328,0,0,0,.051.094v0l2.6,3.21ZM13.168,18.6a.929.929,0,0,1-1.507,0l.126-.155,1.384-1.706a1.536,1.536,0,0,1,0,1.86Zm0,0" transform="translate(-0.219 0)" fill="#fff"/><path d="M64.56,144.658H71.5a.336.336,0,0,0,0-.658H64.56a.336.336,0,0,0,0,.658Zm0,0" transform="translate(-62.155 -138.076)" fill="#fff"/><path d="M64.56,192.658H71.5a.336.336,0,0,0,0-.658H64.56a.336.336,0,0,0,0,.658Zm0,0" transform="translate(-62.155 -184.102)" fill="#fff"/><path d="M66.428,240H64.56a.336.336,0,0,0,0,.658h1.869a.336.336,0,0,0,0-.658Zm0,0" transform="translate(-62.155 -230.127)" fill="#fff"/></svg>