<svg xmlns="http://www.w3.org/2000/svg" width="23.942" height="34.247" viewBox="0 0 23.942 34.247"><path d="M-340.029,470.246h0l-9.576-13.829a13.2,13.2,0,0,1-2.364-8.663,12.892,12.892,0,0,1,3.477-8.247A11.892,11.892,0,0,1-340.029,436a11.9,11.9,0,0,1,8.465,3.506,12.893,12.893,0,0,1,3.476,8.247,13.2,13.2,0,0,1-2.364,8.663l-9.576,13.829Zm.213-28.9a6.847,6.847,0,0,0-6.839,6.839,6.847,6.847,0,0,0,6.839,6.839,6.847,6.847,0,0,0,6.839-6.839A6.847,6.847,0,0,0-339.816,441.345Z" transform="translate(352 -436)" fill="#d9a64a"/></svg>