<svg xmlns="http://www.w3.org/2000/svg" width="15.1" height="18.616" viewBox="0 0 15.1 18.616"><g transform="translate(0)"><path d="M12.889,12.034A7.5,7.5,0,0,0,10.02,9.816a5.814,5.814,0,0,0,1.9-4.434C11.915,2.414,9.957,0,7.55,0S3.185,2.414,3.185,5.381a5.814,5.814,0,0,0,1.9,4.434,7.5,7.5,0,0,0-2.869,2.219A10.438,10.438,0,0,0,0,18.616H1.18c0-4.331,2.858-7.854,6.37-7.854s6.37,3.523,6.37,7.854H15.1A10.438,10.438,0,0,0,12.889,12.034ZM7.55,9.308c-1.756,0-3.185-1.762-3.185-3.927S5.794,1.454,7.55,1.454s3.185,1.762,3.185,3.927S9.306,9.308,7.55,9.308Z" transform="translate(0 0)" fill="#fff"/></g></svg>